<svg xmlns="http://www.w3.org/2000/svg" fill="none" viewBox="4.52 -0.46 221.05 64.66">
<path d="M69.0827 -0.46416C60.9434 -0.44074 52.8041 -0.435337 44.6647 -0.447951C44.6159 0.470409 44.465 1.38061 44.2148 2.26609C43.6542 3.9159 42.5251 5.31658 41.0263 6.22157C39.5274 7.12657 37.7549 7.47785 36.0207 7.2136C34.2866 6.94934 32.7019 6.08648 31.5457 4.7769C30.3896 3.46733 29.736 1.795 29.7 0.0542871C29.6959 -0.113147 29.6908 -0.280537 29.6862 -0.447951H4.67971C4.41422 -0.308215 4.56071 -0.0654473 4.56064 0.118919C4.55231 21.4691 4.54969 42.8194 4.5528 64.1696H61.6107C64.1283 64.1696 66.6459 64.173 69.1634 64.1617C69.3281 64.161 69.5569 64.304 69.6712 64.0436C69.6712 42.7504 69.6752 21.4571 69.6833 0.163908C69.6836 -0.317341 69.6274 -0.465735 69.0827 -0.46416Z" fill="#654FEF"/>
<path d="M19.8218 32.4255C19.3387 32.9653 18.6996 33.3442 17.9916 33.5105C17.5445 33.6118 17.0814 33.6234 16.6297 33.5446C16.178 33.4657 15.7468 33.298 15.3614 33.0513C14.9759 32.8046 14.6442 32.4838 14.3855 32.108C14.1269 31.7321 13.9466 31.3087 13.8553 30.8627C13.764 30.4167 13.7636 29.957 13.8539 29.5108C13.9443 29.0646 14.1237 28.6409 14.3816 28.2645C14.6395 27.8881 14.9706 27.5667 15.3556 27.3193C15.7405 27.0718 16.1714 26.9032 16.6229 26.8234C17.4573 26.6711 18.319 26.8324 19.0401 27.2759C19.7612 27.7194 20.2902 28.4134 20.524 29.2227C20.5974 29.4645 20.6611 29.3763 20.7837 29.2881C23.2419 27.5193 25.7011 25.7519 28.1613 23.9858C29.5293 23.0047 30.9047 22.0337 32.2719 21.0514C33.4338 20.2166 34.5887 19.3722 35.7462 18.5313C35.7664 18.5128 35.7845 18.4921 35.8 18.4696C35.0763 18.0888 34.5111 17.4669 34.2038 16.7134C33.8966 15.9599 33.867 15.1229 34.1203 14.3499C34.3539 13.6559 34.8059 13.0546 35.4096 12.6344C36.0133 12.2143 36.737 11.9976 37.4741 12.016C38.2113 12.0345 38.923 12.2873 39.5045 12.7371C40.0861 13.1869 40.5069 13.8101 40.7049 14.515C40.9127 15.2791 40.8495 16.0909 40.5257 16.8143C40.202 17.5376 39.6375 18.1285 38.9269 18.4879L53.6007 29.4475C53.7358 28.8412 54.0352 28.2831 54.4667 27.8334C54.8982 27.3838 55.4454 27.0597 56.049 26.8962C56.5017 26.7607 56.9785 26.7238 57.4469 26.788C57.9153 26.8523 58.3642 27.0161 58.7629 27.2683C59.1829 27.5231 59.543 27.8643 59.8189 28.2689C60.0948 28.6735 60.2802 29.132 60.3625 29.6137C60.4448 30.0953 60.4221 30.5889 60.296 31.0611C60.1699 31.5333 59.9432 31.9733 59.6314 32.3512C59.3195 32.7292 58.9296 33.0365 58.488 33.2524C58.0464 33.4682 57.5632 33.5877 57.0712 33.6026C56.5791 33.6176 56.0895 33.5277 55.6354 33.3391C55.1813 33.1505 54.7732 32.8675 54.4386 32.5092C54.3369 32.5819 54.3293 32.7037 54.295 32.8049C53.7095 34.5335 53.127 36.2633 52.5476 37.994C51.3367 41.6329 50.1274 45.2723 48.9198 48.9122C48.8452 49.1361 48.8641 49.1818 49.118 49.1569C50.0053 49.0403 50.9031 49.277 51.6151 49.8152C52.3271 50.3533 52.7956 51.1493 52.9181 52.0291C52.9987 52.5047 52.972 52.9921 52.8401 53.4562C52.7081 53.9203 52.4741 54.3497 52.155 54.7133C51.645 55.325 50.9357 55.7406 50.1496 55.8883C49.3636 56.036 48.5502 55.9065 47.8502 55.5222C47.1502 55.138 46.6075 54.523 46.3159 53.7838C46.0243 53.0445 46.0021 52.2274 46.2533 51.4736C46.2886 51.3652 46.3286 51.2582 46.3808 51.1096L28.102 50.893C28.3929 51.4384 28.5314 52.0512 28.5032 52.6677C28.475 53.2842 28.281 53.8819 27.9415 54.399C27.6903 54.7968 27.3562 55.1368 26.9618 55.3961C26.5673 55.6554 26.1216 55.828 25.6544 55.9025C25.1663 55.9861 24.6658 55.9645 24.1868 55.8392C23.7078 55.7139 23.2616 55.4878 22.8785 55.1762C22.4953 54.8647 22.1842 54.475 21.9662 54.0336C21.7482 53.5922 21.6285 53.1095 21.6151 52.6181C21.6017 52.1267 21.695 51.6383 21.8887 51.1858C22.0823 50.7334 22.3718 50.3276 22.7374 49.996C23.103 49.6644 23.5363 49.4147 24.0077 49.2639C24.4792 49.1131 24.9778 49.0647 25.4698 49.1221C23.5893 43.563 21.713 38.0163 19.8218 32.4255ZM21.3164 30.5499C22.7747 31.1376 24.1843 31.7036 25.592 32.2744C25.6859 32.2972 25.7737 32.3397 25.8496 32.3991C25.9255 32.4585 25.9877 32.5333 26.032 32.6186C26.0762 32.7038 26.1016 32.7975 26.1062 32.8933C26.1109 32.9891 26.0948 33.0848 26.0591 33.1739C26.0233 33.263 25.9687 33.3435 25.8989 33.4098C25.8292 33.4762 25.7459 33.527 25.6547 33.5587C25.5635 33.5904 25.4665 33.6023 25.3702 33.5937C25.274 33.585 25.1807 33.556 25.0967 33.5085C24.2793 33.1804 23.4644 32.8463 22.6478 32.5164C22.1322 32.3081 21.6153 32.103 21.0452 31.8749C22.973 37.5736 24.8809 43.213 26.8024 48.8929C26.9342 48.7411 27.0348 48.626 27.1345 48.5102C28.4652 46.9654 29.7961 45.4207 31.1271 43.876C31.1781 43.7931 31.2467 43.7222 31.328 43.6681C31.4093 43.6139 31.5014 43.5779 31.5981 43.5625C31.6948 43.5471 31.7937 43.5527 31.888 43.5788C31.9823 43.6049 32.0698 43.651 32.1444 43.7138C32.2176 43.7774 32.2764 43.8557 32.3167 43.9435C32.3571 44.0313 32.3782 44.1267 32.3786 44.2232C32.3789 44.3197 32.3586 44.4152 32.319 44.5034C32.2793 44.5915 32.2212 44.6703 32.1485 44.7344C31.0249 46.0367 29.9013 47.3389 28.7776 48.6411C28.524 48.9354 28.2736 49.2324 27.9886 49.5671L46.4199 49.7847C46.3027 49.6133 46.2223 49.4941 46.1403 49.376C45.0502 47.8071 43.9602 46.2381 42.8705 44.6689C42.8088 44.5976 42.7627 44.5144 42.735 44.4245C42.7073 44.3347 42.6987 44.2401 42.7095 44.1468C42.7204 44.0535 42.7506 43.9634 42.7983 43.8822C42.8459 43.801 42.91 43.7304 42.9864 43.675C43.0665 43.6195 43.1577 43.5819 43.2539 43.5647C43.35 43.5474 43.4488 43.551 43.5434 43.5752C43.638 43.5993 43.7262 43.6435 43.802 43.7046C43.8778 43.7657 43.9394 43.8424 43.9826 43.9294C44.8236 45.1431 45.666 46.3559 46.5096 47.5679C46.8266 48.024 47.1444 48.4796 47.4954 48.9835C49.4017 43.2712 51.2882 37.6181 53.1924 31.912C52.6336 32.1285 52.1313 32.322 51.6298 32.5177C50.7641 32.8555 49.8988 33.1943 49.0338 33.5339C48.9138 33.5888 48.78 33.6072 48.6494 33.5869C48.5188 33.5665 48.3972 33.5082 48.3 33.4194C48.2114 33.3428 48.1461 33.2431 48.1116 33.1316C48.0771 33.0202 48.0748 32.9013 48.1048 32.7886C48.1372 32.6621 48.2033 32.5465 48.2963 32.454C48.3892 32.3615 48.5054 32.2956 48.6329 32.2631C49.4709 31.9358 50.3089 31.6087 51.147 31.2818C51.7208 31.0578 52.2945 30.8338 52.9105 30.5932L38.0521 19.496C38.0521 20.9815 38.0524 22.3872 38.052 23.7929C38.0518 24.2457 38.0595 24.6988 38.045 25.1512C38.0378 25.2994 37.9802 25.4408 37.8817 25.5524C37.7831 25.664 37.6494 25.7391 37.5023 25.7657C37.3551 25.7922 37.2033 25.7685 37.0715 25.6984C36.9397 25.6284 36.8356 25.5161 36.7763 25.3799C36.7207 25.2151 36.7005 25.0405 36.7172 24.8675C36.7157 23.1523 36.7195 21.4371 36.7189 19.7218C36.7189 19.6547 36.7691 19.5672 36.651 19.5101L21.3164 30.5499ZM59.071 30.2015C59.0756 29.927 59.0251 29.6544 58.9225 29.3995C58.8199 29.1446 58.6673 28.9125 58.4735 28.7167C58.2796 28.5209 58.0485 28.3653 57.7935 28.259C57.5385 28.1526 57.2648 28.0977 56.9882 28.0973C56.5725 28.0937 56.1652 28.2124 55.8176 28.4385C55.4699 28.6646 55.1977 28.9879 55.0352 29.3675C54.8727 29.7472 54.8274 30.1661 54.9048 30.5713C54.9823 30.9766 55.1791 31.3499 55.4703 31.6441C55.7616 31.9384 56.1342 32.1403 56.5411 32.2244C56.948 32.3085 57.3709 32.2709 57.7563 32.1165C58.1417 31.9621 58.4723 31.6977 58.7063 31.3568C58.9403 31.016 59.0672 30.6139 59.071 30.2015V30.2015ZM19.3232 30.1837C19.3238 29.6327 19.1044 29.1039 18.713 28.713C18.3216 28.3222 17.7901 28.1012 17.2348 28.0984C16.6795 28.0956 16.1458 28.3113 15.7504 28.6982C15.355 29.0851 15.1302 29.6117 15.1253 30.1627C15.1228 30.4369 15.1749 30.7089 15.2786 30.9631C15.3823 31.2172 15.5356 31.4486 15.7296 31.6439C15.9237 31.8391 16.1546 31.9944 16.4093 32.1009C16.6639 32.2073 16.9373 32.2629 17.2136 32.2643C17.4899 32.2656 17.7638 32.2129 18.0196 32.109C18.2753 32.005 18.5078 31.852 18.7038 31.6587C18.8998 31.4654 19.0554 31.2356 19.1617 30.9825C19.268 30.7294 19.3229 30.4579 19.3232 30.1837V30.1837ZM37.397 13.3416C37.1206 13.3384 36.8462 13.3897 36.5899 13.4927C36.3336 13.5957 36.1006 13.7483 35.9043 13.9416C35.708 14.1348 35.5525 14.3649 35.4467 14.6184C35.3409 14.8719 35.287 15.1438 35.2881 15.4182C35.2866 15.6944 35.3404 15.9682 35.4465 16.2236C35.5526 16.479 35.7088 16.711 35.906 16.9059C36.1033 17.1009 36.3376 17.2549 36.5954 17.3592C36.8532 17.4634 37.1293 17.5157 37.4077 17.513C37.6861 17.5104 37.9611 17.4528 38.2169 17.3436C38.4726 17.2345 38.7039 17.076 38.8973 16.8773C39.0908 16.6786 39.2424 16.4437 39.3435 16.1863C39.4446 15.9289 39.4931 15.6541 39.4862 15.378C39.4785 14.8339 39.2548 14.3148 38.8636 13.9335C38.4724 13.5521 37.9454 13.3395 37.397 13.3416V13.3416ZM51.6194 52.4981C51.6142 52.2235 51.5545 51.9527 51.4436 51.7011C51.3327 51.4495 51.1729 51.222 50.9732 51.0319C50.7735 50.8417 50.538 50.6925 50.2801 50.5929C50.0222 50.4933 49.7471 50.4452 49.4704 50.4513C49.1937 50.4575 48.921 50.5178 48.6679 50.6288C48.4148 50.7397 48.1862 50.8992 47.9953 51.0981C47.8044 51.2969 47.655 51.5312 47.5556 51.7875C47.4562 52.0438 47.4087 52.317 47.416 52.5916C47.4369 53.1454 47.6755 53.669 48.0807 54.0504C48.4858 54.4318 49.0253 54.6406 49.5837 54.6322C50.137 54.6118 50.6602 54.3769 51.0408 53.9778C51.4215 53.5788 51.6292 53.0475 51.6194 52.4981V52.4981ZM25.0444 50.4466C24.4879 50.4544 23.9569 50.6802 23.5674 51.0747C23.1778 51.4692 22.9612 52.0006 22.9647 52.5529C22.9682 53.1053 23.1915 53.6339 23.5861 54.0235C23.9806 54.4131 24.5144 54.6322 25.071 54.633C25.3485 54.6321 25.6231 54.5768 25.879 54.4704C26.135 54.3639 26.3672 54.2084 26.5625 54.0127C26.7578 53.817 26.9122 53.585 27.017 53.33C27.1217 53.075 27.1748 52.802 27.173 52.5266C27.1713 52.2512 27.1148 51.9789 27.0068 51.7252C26.8988 51.4715 26.7414 51.2415 26.5437 51.0483C26.3459 50.8551 26.1117 50.7025 25.8545 50.5992C25.5972 50.496 25.3219 50.4441 25.0444 50.4466Z" fill="white"/>
<path d="M37.4889 40.836C35.5281 40.836 33.567 40.8152 31.6066 40.8435C30.3671 40.9306 29.1388 40.5608 28.157 39.8051C27.4464 39.2356 26.9221 38.4696 26.6505 37.6041C26.3789 36.7387 26.3723 35.8127 26.6314 34.9435C26.8704 34.0718 27.3676 33.2914 28.0585 32.7032C28.7495 32.115 29.6025 31.7462 30.5071 31.6445C30.8255 31.6091 31.1467 31.6041 31.4661 31.6297C31.6322 31.6352 31.7105 31.6069 31.7723 31.428C32.1599 30.2623 32.9177 29.2525 33.9322 28.5499C34.9466 27.8474 36.163 27.4899 37.3994 27.5309C38.4639 27.5491 39.4995 27.877 40.378 28.4739C40.4568 28.5352 40.548 28.5787 40.6454 28.6016C40.7428 28.6245 40.844 28.6261 40.9421 28.6064C41.9081 28.439 42.9016 28.6558 43.7076 29.21C44.5136 29.7642 45.0672 30.6112 45.2485 31.5675C45.2581 31.6732 45.2979 31.7739 45.3631 31.8579C45.4283 31.942 45.5163 32.0058 45.6168 32.042C46.5207 32.4552 47.2669 33.1456 47.7456 34.0115C48.2243 34.8773 48.4101 35.8728 48.2756 36.8513C48.1412 37.8298 47.6936 38.7396 46.9988 39.4467C46.3039 40.1537 45.3987 40.6206 44.4163 40.7786C44.1964 40.8153 43.9738 40.834 43.7508 40.8344C42.7023 40.8368 41.6538 40.8351 40.6052 40.8351C39.5665 40.835 38.5277 40.835 37.4889 40.8351L37.4889 40.836ZM38.179 39.5126C39.0725 39.5126 39.966 39.5126 40.8594 39.5126C41.7625 39.5126 42.6656 39.5142 43.5687 39.5109C43.7726 39.5173 43.9766 39.5065 44.1787 39.4786C44.9229 39.3609 45.6045 38.9953 46.1115 38.442C46.6184 37.8886 46.9205 37.1806 46.968 36.4342C47.0155 35.6879 46.8056 34.9477 46.3728 34.3355C45.9399 33.7233 45.31 33.2756 44.5867 33.0659C44.4919 33.0531 44.4007 33.0215 44.3185 32.9731C44.2363 32.9247 44.1647 32.8604 44.108 32.7839C44.0513 32.7075 44.0107 32.6206 43.9885 32.5283C43.9663 32.436 43.963 32.3402 43.9788 32.2467C43.9785 31.8744 43.8901 31.5075 43.7207 31.1753C43.5513 30.8432 43.3057 30.5552 43.0036 30.3345C42.7015 30.1138 42.3515 29.9666 41.9816 29.9048C41.6117 29.8429 41.2323 29.8682 40.874 29.9784C40.7165 30.0353 40.5463 30.0481 40.3819 30.0155C40.2175 29.9829 40.0653 29.9062 39.9418 29.7938C39.4493 29.3978 38.8744 29.1155 38.2585 28.9671C37.6425 28.8187 37.0011 28.8079 36.3805 28.9356C35.5166 29.0993 34.7222 29.5169 34.1004 30.1343C33.4787 30.7517 33.0584 31.5403 32.8941 32.3977C32.7798 32.9735 32.4864 33.1587 31.9215 33.0292C31.3911 32.8979 30.8366 32.896 30.3054 33.0238C29.5353 33.2147 28.859 33.6718 28.3981 34.313C27.9371 34.9543 27.7217 35.7376 27.7905 36.5223C27.8637 37.3474 28.2493 38.1143 28.8695 38.6686C29.4898 39.2229 30.2986 39.5234 31.1332 39.5095C31.6274 39.5102 32.1212 39.5239 32.6158 39.5196C34.4701 39.5034 36.3246 39.5131 38.179 39.5126V39.5126Z" fill="white"/>
<path d="M83.7256 40.1281L81.3844 23.1614H84.1881C84.5831 26.8227 85.1101 32.4518 85.2412 35.6555H85.2894C85.6816 32.0635 86.3958 26.8785 86.8811 23.1614H89.4463C89.9541 27.0035 90.6652 31.7955 91.0123 35.5379H91.0666C91.2683 32.2245 91.7685 27.0057 92.1636 23.1614H94.8291L92.3026 40.1281H89.6125C89.1304 36.3233 88.4601 31.7981 88.0945 28.3066H88.0463C87.649 31.8718 86.9041 36.4707 86.3932 40.1281H83.7256Z" fill="white"/>
<path d="M102.585 37.4364C102.585 38.2643 102.588 39.6279 102.636 40.1281H100.228C100.173 39.8811 100.08 39.3511 100.058 39.1642C99.8466 39.5481 99.5276 39.8628 99.1395 40.07C98.7514 40.2772 98.311 40.368 97.8718 40.3312C95.8805 40.3312 95.0767 38.5004 95.0767 36.5164V36.2878C95.0767 33.0485 97.2761 32.1873 99.6635 32.1873H99.9675V30.5091C99.9675 29.4789 99.8437 28.8998 99.0401 28.8998C98.2591 28.8998 98.0781 29.5044 98.0781 30.3209V30.5354H95.4861V30.3656C95.4861 28.4628 96.2223 26.778 99.1334 26.778C101.69 26.778 102.585 28.178 102.585 30.3016V37.4364ZM100.016 34.1687H99.5767C98.3739 34.1687 97.5814 34.6206 97.5814 36.2593V36.4655C97.5814 37.393 97.9202 38.0529 98.7433 38.0529C99.6255 38.0529 100.016 37.4478 100.016 35.6749V34.1687Z" fill="white"/>
<path d="M106.783 36.0131V36.6137C106.783 37.4241 107.014 38.1261 107.857 38.1261C108.574 38.1261 108.88 37.6935 108.88 36.8178C108.88 35.9688 108.638 35.3818 107.034 34.3555C105.212 33.1933 104.335 32.2404 104.335 30.3595C104.335 28.1364 105.538 26.778 107.844 26.778C110.348 26.778 111.344 28.1486 111.344 30.5578V31.0838H108.797V30.273C108.797 29.3578 108.487 28.9831 107.86 28.9831C107.21 28.9831 106.952 29.4517 106.952 30.1462C106.952 30.8824 107.201 31.2177 108.406 31.9815C110.724 33.4447 111.542 34.3757 111.542 36.5282C111.542 39.0448 110.269 40.3312 107.78 40.3312C104.803 40.3312 104.121 38.4749 104.121 36.5975V36.0131H106.783Z" fill="white"/>
<path d="M113.094 30.7925C113.094 28.1759 113.094 27.5748 113.068 26.9812H115.586C115.646 27.3646 115.678 27.7516 115.683 28.1395C115.895 27.7125 116.228 27.3563 116.642 27.1145C117.055 26.8727 117.53 26.7558 118.01 26.778C118.474 26.7351 118.939 26.8529 119.326 27.1115C119.713 27.37 119.998 27.7533 120.132 28.1965C120.382 27.7489 120.752 27.3791 121.202 27.1286C121.651 26.878 122.162 26.7567 122.677 26.778C124.116 26.778 125.293 27.4976 125.293 30.0669V40.1281H122.656V30.5447C122.656 29.6281 122.413 29.1236 121.671 29.1236C120.743 29.1236 120.523 29.8365 120.523 31.1339V40.1281H117.864V30.6074C117.864 29.4101 117.506 29.1236 116.872 29.1236C115.931 29.1236 115.731 29.8426 115.731 31.097V40.1281H113.094V30.7925Z" fill="white"/>
<path d="M133.699 32.3777H129.941V37.7216H134.272L133.939 40.1281H127.304V23.1614H133.907V25.5903H129.941V29.9711H133.699L133.699 32.3777Z" fill="white"/>
<path d="M143.018 22.4218V36.4826C143.018 38.4855 143.018 39.4138 143.044 40.1281H140.526C140.478 39.7969 140.429 39.0857 140.429 38.8777C140.245 39.3341 139.92 39.7207 139.5 39.9819C139.08 40.2431 138.587 40.3654 138.093 40.3312C135.714 40.3312 135.254 38.4464 135.254 35.8995V30.7517C135.254 28.4659 136.133 26.778 138.295 26.778C139.178 26.778 140.019 27.036 140.381 27.7047V22.4218H143.018ZM137.894 30.9145V36.111C137.894 37.3245 138.184 37.9857 139.094 37.9857C140.172 37.9857 140.381 37.0279 140.381 35.5266V31.4814C140.381 30.0589 140.25 29.1235 139.126 29.1235C138.209 29.1235 137.894 29.8132 137.894 30.9145V30.9145Z" fill="white"/>
<path d="M152.612 39.3954C152.612 42.3104 152.328 44.7384 148.556 44.7384C145.402 44.7384 144.871 42.7745 144.871 41.3166V41.2627H147.51V41.3197C147.494 41.4821 147.513 41.646 147.566 41.8006C147.619 41.9551 147.704 42.0967 147.816 42.2159C147.929 42.335 148.065 42.429 148.217 42.4914C148.369 42.5539 148.533 42.5834 148.697 42.578C149.791 42.578 149.975 41.7453 149.975 40.0873V38.6517C149.776 39.0474 149.462 39.3743 149.072 39.5898C148.683 39.8053 148.238 39.8993 147.794 39.8596C145.379 39.8596 144.851 37.9971 144.851 35.7398V30.7741C144.851 28.9862 145.529 26.778 148.072 26.778C149.465 26.778 150.037 27.4221 150.258 28.1407C150.265 27.7515 150.306 27.3635 150.38 26.9811H152.663C152.638 27.7919 152.612 28.88 152.612 30.266L152.612 39.3954ZM147.491 30.9338V35.5489C147.491 36.8844 147.806 37.5592 148.662 37.5592C149.787 37.5592 149.978 36.6809 149.978 35.0694V31.2181C149.978 30.0989 149.864 29.1235 148.799 29.1235C147.955 29.1235 147.491 29.6597 147.491 30.9338Z" fill="white"/>
<path d="M157.018 34.2507V36.182C157.018 37.1977 157.254 38.1261 158.255 38.1261C159.305 38.1261 159.435 37.1933 159.435 36.2478V36.1851H162.005V36.2448C162.005 37.6246 161.708 40.3312 158.317 40.3312C154.943 40.3312 154.448 38.2573 154.448 35.5998V31.2913C154.448 29.4934 155.02 26.778 158.304 26.778C161.132 26.778 162.053 28.6707 162.053 31.2721V34.2507H157.018ZM159.529 32.2022V30.8561C159.529 29.6404 159.246 28.9831 158.301 28.9831C157.451 28.9831 157.04 29.5816 157.04 30.8592V32.2022H159.529Z" fill="white"/>
<path d="M166.484 32.5413V40.1281H163.847V23.1614H167.499C170.101 23.1614 171.637 24.1956 171.637 27.2496V27.8959C171.637 30.5029 170.559 31.1663 169.897 31.4357C170.894 31.8999 171.464 32.6128 171.464 34.9154C171.419 36.6545 171.471 38.3947 171.62 40.1281H169.074C168.847 39.1032 168.895 36.3163 168.895 35.0838C168.895 33.0156 168.626 32.5413 167.096 32.5413H166.484ZM166.484 30.3805H167.089C168.484 30.3805 168.997 29.8588 168.997 28.0139V27.4317C168.997 26.1203 168.724 25.3218 167.229 25.3218H166.484V30.3805Z" fill="white"/>
<path d="M180.98 36.2886C180.98 38.2222 180.98 39.4383 181.005 40.1281H178.487C178.428 39.7151 178.395 39.2987 178.391 38.8816C177.923 40.0307 177.003 40.3312 175.919 40.3312C174.686 40.3312 173.285 39.745 173.285 36.9103V26.9811H175.922V36.2316C175.922 37.4403 176.273 37.9887 177.064 37.9887C177.924 37.9887 178.342 37.4526 178.342 35.7411V26.9811H180.98L180.98 36.2886Z" fill="white"/>
<path d="M183.193 31.0373C183.193 28.3663 183.193 27.5779 183.167 26.9812H185.685C185.744 27.3772 185.776 27.7768 185.781 28.1772C185.999 27.7269 186.348 27.3523 186.784 27.1026C187.22 26.8529 187.721 26.7398 188.223 26.778C189.835 26.778 190.944 27.7485 190.944 30.2327V40.1281H188.307V30.7267C188.307 29.5399 187.895 29.1236 187.168 29.1236C186.229 29.1236 185.829 29.6185 185.829 31.4037V40.1281H183.193V31.0373Z" fill="white"/>
<path d="M191.988 26.9812H193.395V23.8257H196.028V26.9812H197.69V29.2758H196.028V37.0495C196.028 37.6712 196.115 38.1678 196.914 38.1678C197.156 38.1728 197.397 38.1471 197.632 38.0915V40.0641C197.119 40.2581 196.572 40.3469 196.024 40.3251C194.368 40.3251 193.395 39.7947 193.395 37.518V29.2758H191.988V26.9812Z" fill="white"/>
<path d="M199.06 26.9812H201.696V40.1281H199.06V26.9812ZM199.082 22.4218H201.719V25.2179H199.082V22.4218Z" fill="white"/>
<path d="M203.922 30.7925C203.922 28.1759 203.922 27.5748 203.896 26.9812H206.414C206.474 27.3645 206.506 27.7516 206.511 28.1394C206.723 27.7124 207.056 27.3562 207.47 27.1144C207.883 26.8725 208.359 26.7557 208.838 26.778C209.302 26.7352 209.767 26.853 210.154 27.1115C210.541 27.3701 210.826 27.7534 210.96 28.1965C211.21 27.7489 211.58 27.3791 212.03 27.1285C212.479 26.878 212.99 26.7566 213.505 26.778C214.944 26.778 216.122 27.4976 216.122 30.0668V40.1281H213.485V30.5446C213.485 29.6281 213.241 29.1235 212.499 29.1235C211.572 29.1235 211.351 29.8365 211.351 31.1339V40.1281H208.692V30.6074C208.692 29.41 208.334 29.1235 207.7 29.1235C206.76 29.1235 206.559 29.8426 206.559 31.097V40.1281H203.922V30.7925Z" fill="white"/>
<path d="M220.538 34.2507V36.182C220.538 37.1977 220.774 38.1261 221.776 38.1261C222.826 38.1261 222.956 37.1933 222.956 36.2478V36.1851H225.525V36.2448C225.525 37.6246 225.228 40.3312 221.837 40.3312C218.463 40.3312 217.969 38.2573 217.969 35.5998V31.2913C217.969 29.4934 218.54 26.778 221.824 26.778C224.653 26.778 225.573 28.6707 225.573 31.2721V34.2507H220.538ZM223.049 32.2022V30.8561C223.049 29.6404 222.767 28.9831 221.821 28.9831C220.971 28.9831 220.561 29.5816 220.561 30.8592V32.2022H223.049Z" fill="white"/>
</svg>