<svg width="427" height="390" viewBox="0 0 427 390" fill="none" xmlns="http://www.w3.org/2000/svg">
<path d="M147 100L147.556 100.831L147.556 100.831L147 100ZM427 5L416.302 0.65345L417.887 12.0912L427 5ZM1.99504 389.1C2.10662 387.984 2.21956 386.84 2.33459 385.669L0.344173 385.473C0.229196 386.644 0.116379 387.786 0.00496281 388.9L1.99504 389.1ZM3.02005 378.686C3.24217 376.44 3.47526 374.115 3.72347 371.714L1.73407 371.508C1.48546 373.913 1.25205 376.242 1.02976 378.489L3.02005 378.686ZM4.46612 364.755C4.71573 362.495 4.98039 360.178 5.26298 357.809L3.27705 357.572C2.9937 359.948 2.72838 362.27 2.4782 364.536L4.46612 364.755ZM6.12533 350.871C6.41932 348.602 6.73085 346.29 7.06215 343.94L5.08172 343.661C4.74932 346.019 4.43679 348.338 4.1419 350.614L6.12533 350.871ZM8.08091 337.013C8.42995 334.737 8.79836 332.428 9.18801 330.09L7.2152 329.761C6.82408 332.109 6.45431 334.426 6.10401 336.71L8.08091 337.013ZM10.3831 323.204C10.7914 320.944 11.2202 318.659 11.6712 316.351L9.70826 315.967C9.25546 318.285 8.82488 320.58 8.41494 322.849L10.3831 323.204ZM13.062 309.5C13.5389 307.238 14.0378 304.956 14.5599 302.655L12.6095 302.213C12.0851 304.523 11.584 306.815 11.105 309.088L13.062 309.5ZM16.1603 295.855C16.7064 293.615 17.2752 291.36 17.8679 289.092L15.9329 288.586C15.3373 290.866 14.7659 293.131 14.2172 295.381L16.1603 295.855ZM19.6936 282.338C20.317 280.108 20.9643 277.865 21.6365 275.613L19.72 275.041C19.0444 277.305 18.3939 279.558 17.7674 281.8L19.6936 282.338ZM23.6886 268.953C24.3902 266.747 25.1164 264.532 25.8682 262.31L23.9737 261.669C23.2179 263.903 22.4879 266.129 21.7826 268.347L23.6886 268.953ZM28.1735 255.702C28.9548 253.529 29.7612 251.35 30.5937 249.167L28.725 248.455C27.8878 250.65 27.077 252.841 26.2915 255.025L28.1735 255.702ZM33.1495 242.659C34.0177 240.511 34.9119 238.359 35.833 236.206L33.9941 235.419C33.0677 237.585 32.1683 239.749 31.2952 241.909L33.1495 242.659ZM38.6405 229.823C39.5968 227.708 40.5798 225.592 41.5905 223.477L39.7858 222.615C38.7691 224.743 37.7801 226.872 36.8182 228.999L38.6405 229.823ZM44.6624 217.217C45.7046 215.149 46.7741 213.082 47.8716 211.017L46.1055 210.078C45.0012 212.156 43.9251 214.236 42.8764 216.317L44.6624 217.217ZM51.2226 204.874C52.3515 202.859 53.5079 200.845 54.6925 198.836L52.9696 197.82C51.7773 199.843 50.6136 201.869 49.4776 203.897L51.2226 204.874ZM58.3129 192.849C59.5319 190.884 60.7789 188.923 62.0545 186.967L60.3794 185.875C59.0953 187.843 57.8402 189.817 56.6133 191.795L58.3129 192.849ZM65.9356 181.164C67.2465 179.251 68.5858 177.345 69.9542 175.445L68.3312 174.276C66.9537 176.189 65.6056 178.108 64.286 180.033L65.9356 181.164ZM74.0915 169.839C75.4931 167.985 76.9234 166.139 78.3831 164.3L76.8166 163.056C75.3471 164.907 73.9072 166.766 72.4962 168.632L74.0915 169.839ZM82.7696 158.905C84.255 157.121 85.769 155.346 87.3123 153.579L85.8061 152.263C84.2524 154.042 82.7281 155.829 81.2328 157.625L82.7696 158.905ZM91.9544 148.39C93.5198 146.681 95.1137 144.981 96.7368 143.291L95.2942 141.906C93.6602 143.607 92.0555 145.319 90.4796 147.039L91.9544 148.39ZM101.625 138.319C103.267 136.688 104.937 135.066 106.636 133.455L105.26 132.004C103.55 133.626 101.868 135.258 100.216 136.9L101.625 138.319ZM111.758 128.711C113.472 127.16 115.214 125.62 116.985 124.09L115.677 122.577C113.895 124.116 112.141 125.667 110.416 127.228L111.758 128.711ZM122.324 119.584C124.107 118.114 125.917 116.656 127.755 115.209L126.517 113.637C124.668 115.093 122.846 116.562 121.052 118.041L122.324 119.584ZM133.294 110.948C135.14 109.56 137.014 108.183 138.915 106.819L137.749 105.194C135.836 106.567 133.951 107.952 132.092 109.349L133.294 110.948ZM144.635 102.809C145.602 102.146 146.576 101.487 147.556 100.831L146.444 99.1689C145.457 99.8291 144.478 100.492 143.505 101.159L144.635 102.809ZM147.556 100.831C148.568 100.154 149.574 99.483 150.577 98.8173L149.47 97.1513C148.466 97.8183 147.457 98.4908 146.444 99.1689L147.556 100.831ZM156.537 94.8887C158.548 93.5737 160.54 92.2812 162.515 91.0109L161.433 89.329C159.454 90.602 157.457 91.8972 155.443 93.2149L156.537 94.8887ZM168.534 87.1718C170.567 85.8862 172.581 84.6245 174.577 83.3862L173.522 81.6868C171.522 82.9281 169.503 84.1928 167.465 85.4813L168.534 87.1718ZM180.646 79.6564C182.707 78.4022 184.749 77.1733 186.77 75.9692L185.747 74.2509C183.72 75.4583 181.673 76.6904 179.606 77.9478L180.646 79.6564ZM192.881 72.3701C194.975 71.1508 197.047 69.9584 199.1 68.7922L198.112 67.0534C196.053 68.223 193.974 69.419 191.874 70.6418L192.881 72.3701ZM205.274 65.3282C207.393 64.155 209.49 63.0102 211.566 61.893L210.618 60.1319C208.535 61.253 206.431 62.4016 204.306 63.5785L205.274 65.3282ZM217.861 58.5546C219.985 57.4456 222.086 56.3657 224.166 55.314L223.264 53.5291C221.176 54.5848 219.067 55.6687 216.935 56.7818L217.861 58.5546ZM230.587 52.1242C232.749 51.0692 234.888 50.0448 237.005 49.05L236.155 47.2398C234.029 48.2389 231.88 49.2675 229.709 50.3268L230.587 52.1242ZM243.443 46.0861C245.65 45.0909 247.834 44.1279 249.995 43.1957L249.203 41.3592C247.032 42.2957 244.838 43.2632 242.621 44.2629L243.443 46.0861ZM256.565 40.4293C258.786 39.5166 260.985 38.6364 263.162 37.7871L262.435 35.9238C260.247 36.7775 258.037 37.6621 255.805 38.5794L256.565 40.4293ZM269.802 35.2681C272.065 34.4336 274.306 33.6322 276.528 32.8618L275.872 30.9722C273.639 31.7468 271.385 32.5526 269.11 33.3915L269.802 35.2681ZM283.285 30.5929C285.568 29.8514 287.832 29.142 290.078 28.4625L289.498 26.5482C287.24 27.2316 284.963 27.9451 282.667 28.6907L283.285 30.5929ZM296.908 26.4712C299.213 25.8244 301.502 25.2077 303.776 24.6189L303.274 22.6828C300.988 23.2749 298.686 23.8951 296.367 24.5456L296.908 26.4712ZM310.681 22.9041C313.007 22.3506 315.321 21.8244 317.624 21.3228L317.198 19.3686C314.883 19.8729 312.557 20.4019 310.218 20.9584L310.681 22.9041ZM324.601 19.8703C326.942 19.405 329.274 18.9627 331.601 18.5406L331.245 16.5727C328.907 16.9967 326.563 17.4411 324.211 17.9087L324.601 19.8703ZM338.622 17.3239C340.97 16.9352 343.315 16.5643 345.661 16.2083L345.361 14.2309C343.006 14.5882 340.652 14.9605 338.295 15.3507L338.622 17.3239ZM352.714 15.1805C355.064 14.8514 357.419 14.5342 359.779 14.2261L359.521 12.2429C357.154 12.5517 354.794 12.8698 352.437 13.1999L352.714 15.1805ZM366.855 13.3296C369.205 13.0398 371.565 12.756 373.938 12.4753L373.703 10.4892C371.328 10.7701 368.965 11.0543 366.61 11.3446L366.855 13.3296ZM381.027 11.6479C383.376 11.3765 385.74 11.1055 388.121 10.8322L387.893 8.8452C385.512 9.1185 383.148 9.3896 380.797 9.66109L381.027 11.6479ZM395.22 10.014C397.568 9.74149 399.935 9.46437 402.322 9.18015L402.086 7.19417C399.701 7.47809 397.336 7.75498 394.989 8.02729L395.22 10.014ZM409.412 8.32093C411.75 8.03201 414.11 7.73432 416.493 7.42569L416.236 5.44225C413.857 5.75033 411.502 6.04753 409.167 6.33603L409.412 8.32093Z" fill="white"/>
</svg>
