<svg width="261" height="247" viewBox="0 0 261 247" fill="none" xmlns="http://www.w3.org/2000/svg">
<path d="M34.2646 114.381C31.5768 117.4 28.0216 119.52 24.0832 120.45C21.596 121.017 19.0202 121.082 16.5075 120.641C13.9948 120.2 11.5959 119.262 9.4519 117.881C7.30794 116.501 5.46228 114.707 4.02351 112.604C2.58474 110.501 1.58194 108.133 1.07411 105.637C0.566291 103.142 0.563701 100.57 1.0665 98.074C1.56931 95.5777 2.56735 93.2069 4.00189 91.1013C5.43642 88.9956 7.27847 87.1976 9.41965 85.813C11.5608 84.4285 13.9578 83.4853 16.4697 83.0391C21.1112 82.1868 25.9044 83.0892 29.9158 85.5704C33.9273 88.0517 36.8699 91.9342 38.1705 96.4619C38.5786 97.8146 38.9332 97.3217 39.6154 96.828C53.2896 86.9321 66.9695 77.0441 80.6551 67.1639C88.2651 61.6748 95.9162 56.2424 103.521 50.7469C109.985 46.0764 116.409 41.3525 122.848 36.648C122.961 36.5445 123.061 36.4286 123.147 36.3026C119.121 34.1723 115.977 30.6932 114.268 26.4775C112.559 22.2618 112.395 17.5795 113.803 13.2547C115.103 9.37187 117.617 6.00785 120.976 3.65745C124.334 1.30705 128.36 0.0943644 132.46 0.197753C136.561 0.301141 140.52 1.71515 143.755 4.2318C146.99 6.74844 149.331 10.2349 150.432 14.1782C151.588 18.4533 151.236 22.995 149.436 27.0419C147.635 31.0887 144.494 34.3946 140.541 36.405L222.169 97.7198C222.92 94.3278 224.586 91.2053 226.986 88.6896C229.386 86.1739 232.43 84.3608 235.788 83.4461C238.306 82.6882 240.959 82.4818 243.564 82.8411C246.17 83.2004 248.667 84.1169 250.885 85.5279C253.221 86.9536 255.224 88.8625 256.759 91.126C258.294 93.3894 259.325 95.9548 259.783 98.6495C260.241 101.344 260.115 104.105 259.413 106.747C258.711 109.389 257.451 111.85 255.716 113.965C253.981 116.08 251.812 117.799 249.355 119.006C246.899 120.214 244.211 120.882 241.474 120.966C238.737 121.05 236.013 120.547 233.487 119.492C230.961 118.437 228.691 116.853 226.829 114.849C226.264 115.255 226.222 115.937 226.031 116.503C222.774 126.174 219.534 135.851 216.31 145.534C209.574 165.892 202.848 186.253 196.13 206.617C195.715 207.87 195.82 208.125 197.233 207.986C202.168 207.334 207.162 208.658 211.123 211.669C215.084 214.679 217.69 219.132 218.372 224.055C218.82 226.715 218.672 229.442 217.937 232.039C217.203 234.635 215.902 237.037 214.126 239.072C211.289 242.494 207.344 244.819 202.971 245.645C198.598 246.472 194.074 245.747 190.18 243.597C186.286 241.447 183.267 238.007 181.645 233.871C180.023 229.735 179.899 225.164 181.297 220.947C181.493 220.34 181.715 219.742 182.006 218.911L80.3254 217.698C81.9435 220.75 82.714 224.178 82.5569 227.627C82.3999 231.076 81.3211 234.42 79.4324 237.313C78.0347 239.539 76.1766 241.441 73.9824 242.892C71.7882 244.342 69.3087 245.308 66.71 245.725C63.9946 246.192 61.2103 246.072 58.5459 245.37C55.8814 244.669 53.3993 243.405 51.2679 241.662C49.1365 239.919 47.4058 237.739 46.1932 235.269C44.9805 232.8 44.3144 230.099 44.24 227.35C44.1655 224.601 44.6845 221.868 45.7617 219.337C46.839 216.806 48.4492 214.535 50.4831 212.68C52.5171 210.825 54.9272 209.428 57.5498 208.585C60.1724 207.741 62.9461 207.47 65.6828 207.791C55.2221 176.69 44.7849 145.659 34.2646 114.381ZM42.5786 103.887C50.6905 107.175 58.532 110.342 66.3627 113.535C66.8849 113.663 67.3736 113.901 67.7958 114.233C68.2179 114.565 68.5638 114.984 68.8101 115.461C69.0563 115.938 69.1972 116.462 69.2231 116.998C69.2491 117.534 69.1597 118.069 68.9607 118.567C68.7618 119.066 68.4581 119.516 68.07 119.887C67.682 120.259 67.2186 120.543 66.7112 120.72C66.2039 120.898 65.6643 120.964 65.1288 120.916C64.5934 120.868 64.0746 120.705 63.6074 120.439C59.0606 118.604 54.5273 116.734 49.9845 114.889C47.1165 113.724 44.2413 112.576 41.0696 111.3C51.794 143.182 62.4069 174.732 73.0961 206.509C73.8291 205.659 74.3884 205.016 74.9431 204.368C82.3457 195.725 89.7491 187.083 97.153 178.442C97.437 177.978 97.8182 177.581 98.2706 177.278C98.7229 176.975 99.2355 176.774 99.7733 176.688C100.311 176.601 100.861 176.632 101.386 176.778C101.91 176.925 102.397 177.182 102.812 177.534C103.219 177.89 103.546 178.328 103.771 178.819C103.995 179.31 104.112 179.844 104.115 180.384C104.117 180.924 104.004 181.458 103.783 181.951C103.563 182.444 103.239 182.885 102.835 183.244C96.5846 190.529 90.3341 197.815 84.0834 205.1C82.6724 206.746 81.2798 208.408 79.6945 210.281L182.223 211.498C181.571 210.539 181.124 209.872 180.668 209.212C174.604 200.434 168.541 191.656 162.479 182.877C162.136 182.478 161.879 182.013 161.725 181.51C161.571 181.008 161.523 180.479 161.584 179.956C161.644 179.434 161.812 178.93 162.077 178.476C162.342 178.022 162.698 177.627 163.124 177.317C163.569 177.006 164.077 176.796 164.612 176.699C165.146 176.603 165.696 176.623 166.222 176.758C166.748 176.894 167.239 177.141 167.661 177.483C168.082 177.825 168.425 178.253 168.665 178.74C173.344 185.53 178.029 192.316 182.722 199.096C184.486 201.648 186.254 204.196 188.206 207.016C198.81 175.058 209.305 143.431 219.897 111.507C216.789 112.719 213.994 113.801 211.205 114.896C206.389 116.786 201.576 118.681 196.764 120.581C196.096 120.889 195.352 120.992 194.626 120.878C193.899 120.764 193.223 120.438 192.682 119.941C192.189 119.512 191.826 118.955 191.634 118.331C191.442 117.707 191.429 117.043 191.596 116.412C191.777 115.704 192.144 115.057 192.661 114.54C193.178 114.023 193.825 113.654 194.534 113.472C199.195 111.641 203.857 109.811 208.519 107.982C211.711 106.729 214.903 105.475 218.329 104.13L135.675 42.0452C135.675 50.356 135.677 58.2201 135.675 66.0843C135.674 68.6175 135.716 71.1525 135.636 73.6834C135.596 74.5126 135.276 75.3038 134.727 75.9281C134.179 76.5523 133.435 76.9729 132.617 77.1213C131.798 77.2697 130.954 77.1371 130.22 76.7452C129.487 76.3533 128.908 75.7251 128.579 74.963C128.269 74.041 128.157 73.0644 128.25 72.0964C128.241 62.5005 128.263 52.9045 128.259 43.3086C128.259 42.9328 128.538 42.4433 127.881 42.124L42.5786 103.887ZM252.598 101.938C252.624 100.402 252.343 98.8773 251.773 97.4513C251.202 96.0252 250.353 94.7266 249.275 93.6312C248.196 92.5357 246.911 91.6652 245.492 91.0703C244.074 90.4755 242.551 90.1681 241.012 90.1661C238.7 90.1457 236.434 90.8099 234.5 92.0748C232.567 93.3397 231.052 95.1484 230.148 97.2724C229.245 99.3963 228.992 101.74 229.423 104.007C229.854 106.274 230.949 108.363 232.569 110.009C234.189 111.655 236.262 112.785 238.526 113.255C240.789 113.726 243.141 113.516 245.285 112.652C247.429 111.788 249.268 110.309 250.57 108.402C251.872 106.495 252.578 104.245 252.598 101.938V101.938ZM31.4908 101.838C31.4943 98.7557 30.2738 95.7971 28.0964 93.6105C25.919 91.424 22.9622 90.1875 19.8734 90.172C16.7845 90.1564 13.8154 91.363 11.616 93.5276C9.41662 95.6921 8.16622 98.6382 8.13859 101.721C8.12483 103.255 8.41473 104.777 8.99165 106.199C9.56857 107.621 10.4211 108.915 11.5005 110.007C12.5798 111.1 13.8646 111.969 15.2812 112.564C16.6978 113.16 18.2184 113.471 19.7555 113.478C21.2927 113.486 22.8163 113.191 24.2388 112.609C25.6614 112.028 26.9549 111.172 28.0453 110.091C29.1356 109.009 30.0012 107.724 30.5925 106.307C31.1837 104.891 31.489 103.373 31.4908 101.838V101.838ZM132.031 7.61374C130.493 7.59556 128.967 7.88297 127.542 8.45924C126.116 9.03551 124.819 9.88911 123.728 10.9703C122.636 12.0516 121.771 13.3388 121.182 14.757C120.594 16.1753 120.294 17.6962 120.3 19.2313C120.291 20.7768 120.591 22.3086 121.181 23.7375C121.771 25.1665 122.64 26.464 123.737 27.5546C124.834 28.6453 126.138 29.5072 127.572 30.0903C129.006 30.6734 130.542 30.966 132.091 30.9511C133.639 30.9362 135.169 30.6141 136.592 30.0034C138.015 29.3928 139.301 28.5059 140.377 27.3944C141.453 26.2828 142.297 24.9688 142.859 23.5287C143.421 22.0887 143.691 20.5514 143.653 19.0064C143.61 15.9624 142.366 13.0582 140.189 10.9249C138.013 8.79162 135.082 7.60168 132.031 7.6137V7.61374ZM211.147 226.679C211.118 225.142 210.786 223.627 210.169 222.219C209.552 220.812 208.663 219.539 207.552 218.476C206.442 217.412 205.132 216.577 203.697 216.02C202.262 215.462 200.732 215.193 199.193 215.228C197.654 215.262 196.137 215.599 194.728 216.22C193.32 216.841 192.049 217.734 190.987 218.846C189.925 219.958 189.094 221.269 188.541 222.703C187.988 224.137 187.724 225.666 187.764 227.201C187.881 230.3 189.208 233.229 191.462 235.363C193.716 237.497 196.717 238.665 199.823 238.618C202.901 238.504 205.811 237.189 207.929 234.957C210.046 232.724 211.202 229.752 211.147 226.679V226.679ZM63.3166 215.201C60.2205 215.245 57.2672 216.508 55.1001 218.715C52.9331 220.922 51.728 223.895 51.7475 226.985C51.767 230.075 53.0095 233.033 55.2042 235.212C57.3989 237.392 60.368 238.618 63.4643 238.623C65.008 238.617 66.5355 238.308 67.9593 237.713C69.383 237.117 70.675 236.247 71.7612 235.152C72.8475 234.057 73.7066 232.76 74.2894 231.333C74.8722 229.906 75.1671 228.379 75.1574 226.838C75.1477 225.297 74.8335 223.774 74.2327 222.355C73.632 220.935 72.7566 219.648 71.6566 218.567C70.5567 217.486 69.2538 216.633 67.8226 216.055C66.3915 215.477 64.8602 215.187 63.3166 215.201Z" fill="white"/>
<path d="M132.542 161.434C121.635 161.434 110.725 161.317 99.8201 161.476C92.9253 161.963 86.0926 159.895 80.6307 155.667C76.6778 152.48 73.7613 148.195 72.2506 143.353C70.7399 138.511 70.703 133.331 72.1445 128.468C73.4739 123.591 76.2395 119.225 80.0832 115.934C83.927 112.644 88.6719 110.58 93.7037 110.011C95.4753 109.813 97.2618 109.785 99.0387 109.928C99.9626 109.959 100.398 109.801 100.742 108.8C102.898 102.278 107.114 96.629 112.757 92.6985C118.4 88.768 125.167 86.7677 132.044 86.9973C137.966 87.0992 143.727 88.9337 148.613 92.2732C149.052 92.6157 149.559 92.8594 150.101 92.9874C150.643 93.1154 151.206 93.1246 151.752 93.0145C157.125 92.0777 162.652 93.2909 167.136 96.3914C171.619 99.492 174.699 104.23 175.707 109.581C175.761 110.172 175.982 110.735 176.345 111.205C176.707 111.676 177.197 112.033 177.756 112.235C182.784 114.547 186.935 118.409 189.598 123.253C192.261 128.097 193.294 133.667 192.546 139.141C191.798 144.616 189.308 149.706 185.443 153.661C181.578 157.617 176.542 160.229 171.078 161.113C169.854 161.318 168.616 161.423 167.376 161.425C161.543 161.438 155.71 161.429 149.878 161.429C144.099 161.428 138.321 161.428 132.542 161.429L132.542 161.434ZM136.381 154.03C141.351 154.03 146.322 154.03 151.292 154.03C156.315 154.03 161.339 154.039 166.363 154.021C167.497 154.056 168.632 153.996 169.756 153.84C173.896 153.181 177.687 151.136 180.508 148.04C183.328 144.945 185.008 140.983 185.272 136.808C185.536 132.632 184.369 128.491 181.961 125.066C179.553 121.641 176.049 119.136 172.025 117.963C171.498 117.892 170.991 117.715 170.534 117.444C170.076 117.173 169.678 116.813 169.363 116.386C169.047 115.959 168.821 115.472 168.698 114.956C168.574 114.439 168.556 113.904 168.644 113.38C168.642 111.298 168.151 109.245 167.208 107.386C166.266 105.528 164.9 103.917 163.219 102.682C161.539 101.448 159.591 100.624 157.534 100.278C155.476 99.9321 153.366 100.073 151.373 100.69C150.496 101.008 149.55 101.08 148.635 100.898C147.721 100.716 146.874 100.286 146.187 99.6571C143.448 97.4421 140.249 95.8624 136.823 95.0321C133.397 94.2019 129.829 94.1418 126.376 94.8563C121.571 95.7718 117.151 98.1083 113.693 101.562C110.234 105.016 107.896 109.428 106.982 114.225C106.347 117.446 104.715 118.483 101.572 117.758C98.6217 117.023 95.537 117.013 92.5819 117.728C88.298 118.796 84.5361 121.353 81.9719 124.94C79.4077 128.528 78.2093 132.91 78.5921 137.301C78.9994 141.917 81.1442 146.207 84.5945 149.308C88.0449 152.409 92.5444 154.09 97.1869 154.013C99.9359 154.017 102.683 154.093 105.434 154.069C115.749 153.979 126.066 154.033 136.381 154.03V154.03Z" fill="white"/>
</svg>
